<svg width="51" height="50" viewBox="0 0 51 50" fill="none" xmlns="http://www.w3.org/2000/svg">
<rect x="0.5" width="50" height="50" rx="10" fill="#2B9B3C"/>
<path d="M40.185 9.5V12.7632C40.185 28.4704 31.4185 35.6053 20.606 35.6053H17.5028C17.8487 30.6909 19.3791 27.7166 23.3732 24.1826C25.3376 22.4449 25.1712 21.4415 24.2037 22.0175C17.5403 25.9822 14.2298 31.3403 14.083 39.8963L14.0781 40.5H10.8149C10.8149 38.2762 11.0042 36.2579 11.3795 34.4109C11.0053 32.2997 10.8177 29.4346 10.8166 25.8158C10.8166 16.8046 18.1212 9.5 27.1324 9.5C30.3955 9.5 33.6587 11.1316 40.185 9.5Z" fill="#F8F8F8"/>
</svg>
