<svg width="32" height="32" viewBox="0 0 32 32" fill="none" xmlns="http://www.w3.org/2000/svg">
<path d="M12.1428 7.26402C12.9401 4.93069 16.1641 4.86002 17.1095 7.05202L17.1895 7.26535L18.2655 10.412C18.5121 11.1337 18.9105 11.794 19.434 12.3486C19.9575 12.9031 20.5939 13.339 21.3001 13.6267L21.5895 13.7347L24.7361 14.8094C27.0695 15.6067 27.1401 18.8307 24.9495 19.776L24.7361 19.856L21.5895 20.932C20.8676 21.1784 20.2069 21.5769 19.6522 22.1004C19.0974 22.6239 18.6613 23.2603 18.3735 23.9667L18.2655 24.2547L17.1908 27.4027C16.3935 29.736 13.1695 29.8067 12.2255 27.616L12.1428 27.4027L11.0681 24.256C10.8217 23.5341 10.4233 22.8735 9.89979 22.3187C9.37629 21.7639 8.73986 21.3279 8.03347 21.04L7.74547 20.932L4.59881 19.8574C2.26414 19.06 2.19347 15.836 4.38547 14.892L4.59881 14.8094L7.74547 13.7347C8.46712 13.4881 9.12749 13.0896 9.68204 12.5661C10.2366 12.0426 10.6724 11.4063 10.9601 10.7L11.0681 10.412L12.1428 7.26402ZM14.6668 8.12535L13.5921 11.272C13.2167 12.3724 12.6058 13.3778 11.8022 14.218C10.9985 15.0583 10.0214 15.7133 8.93881 16.1374L8.60547 16.2587L5.45881 17.3334L8.60547 18.408C9.70588 18.7835 10.7112 19.3943 11.5515 20.198C12.3917 21.0016 13.0467 21.9788 13.4708 23.0614L13.5921 23.3947L14.6668 26.5414L15.7415 23.3947C16.117 22.2943 16.7278 21.2889 17.5314 20.4487C18.3351 19.6084 19.3122 18.9535 20.3948 18.5294L20.7281 18.4094L23.8748 17.3334L20.7281 16.2587C19.6277 15.8832 18.6224 15.2724 17.7821 14.4687C16.9419 13.6651 16.2869 12.6879 15.8628 11.6054L15.7428 11.272L14.6668 8.12535ZM25.3335 2.66669C25.5829 2.66669 25.8273 2.73666 26.039 2.86865C26.2507 3.00064 26.4211 3.18936 26.5308 3.41335L26.5948 3.56935L27.0615 4.93735L28.4308 5.40402C28.6808 5.48895 28.8999 5.64617 29.0604 5.85577C29.221 6.06537 29.3157 6.31791 29.3325 6.58138C29.3494 6.84485 29.2876 7.10739 29.1551 7.33574C29.0226 7.56408 28.8253 7.74794 28.5881 7.86402L28.4308 7.92802L27.0628 8.39469L26.5961 9.76402C26.5111 10.0139 26.3537 10.233 26.144 10.3933C25.9344 10.5537 25.6818 10.6483 25.4183 10.665C25.1549 10.6817 24.8924 10.6198 24.6641 10.4872C24.4359 10.3546 24.2521 10.1572 24.1361 9.92002L24.0721 9.76402L23.6055 8.39602L22.2361 7.92935C21.9862 7.84443 21.767 7.6872 21.6065 7.4776C21.446 7.268 21.3513 7.01546 21.3344 6.75199C21.3176 6.48852 21.3793 6.22598 21.5118 5.99764C21.6444 5.7693 21.8417 5.58543 22.0788 5.46935L22.2361 5.40535L23.6041 4.93869L24.0708 3.56935C24.1607 3.30592 24.3308 3.07723 24.5573 2.91535C24.7837 2.75347 25.0551 2.66652 25.3335 2.66669Z" fill="#058ED9"/>
</svg>
