<svg width="20" height="20" viewBox="0 0 20 20" fill="none" xmlns="http://www.w3.org/2000/svg">
<path fill-rule="evenodd" clip-rule="evenodd" d="M18.3332 10C18.3332 14.6025 14.6023 18.3334 9.99984 18.3334C5.39734 18.3334 1.6665 14.6025 1.6665 10C1.6665 5.39752 5.39734 1.66669 9.99984 1.66669C14.6023 1.66669 18.3332 5.39752 18.3332 10ZM9.99984 16.6667C11.7679 16.6667 13.4636 15.9643 14.7139 14.7141C15.9641 13.4638 16.6665 11.7681 16.6665 10C16.6665 8.23191 15.9641 6.53622 14.7139 5.28598C13.4636 4.03573 11.7679 3.33335 9.99984 3.33335C8.23173 3.33335 6.53603 4.03573 5.28579 5.28598C4.03555 6.53622 3.33317 8.23191 3.33317 10C3.33317 11.7681 4.03555 13.4638 5.28579 14.7141C6.53603 15.9643 8.23173 16.6667 9.99984 16.6667Z" fill="#D36135"/>
<path fill-rule="evenodd" clip-rule="evenodd" d="M9.99984 11.6667C9.77882 11.6667 9.56686 11.5789 9.41058 11.4226C9.2543 11.2663 9.1665 11.0544 9.1665 10.8334V6.66671C9.1665 6.44569 9.2543 6.23373 9.41058 6.07745C9.56686 5.92117 9.77882 5.83337 9.99984 5.83337C10.2209 5.83337 10.4328 5.92117 10.5891 6.07745C10.7454 6.23373 10.8332 6.44569 10.8332 6.66671V10.8334C10.8332 11.0544 10.7454 11.2663 10.5891 11.4226C10.4328 11.5789 10.2209 11.6667 9.99984 11.6667Z" fill="#D36135"/>
<path d="M9.1665 13.3333C9.1665 13.1123 9.2543 12.9004 9.41058 12.7441C9.56686 12.5878 9.77882 12.5 9.99984 12.5C10.2209 12.5 10.4328 12.5878 10.5891 12.7441C10.7454 12.9004 10.8332 13.1123 10.8332 13.3333C10.8332 13.5543 10.7454 13.7663 10.5891 13.9226C10.4328 14.0789 10.2209 14.1667 9.99984 14.1667C9.77882 14.1667 9.56686 14.0789 9.41058 13.9226C9.2543 13.7663 9.1665 13.5543 9.1665 13.3333Z" fill="#D36135"/>
</svg>
