<svg width="30" height="30" viewBox="0 0 30 30" fill="none" xmlns="http://www.w3.org/2000/svg">
<path d="M7 24.9L8.905 23.3763L8.9175 23.3663C9.315 23.0475 9.51625 22.8875 9.74 22.7737C9.94083 22.6712 10.1525 22.5971 10.375 22.5513C10.6238 22.5 10.8825 22.5 11.4025 22.5H22.2537C23.6512 22.5 24.3513 22.5 24.885 22.2275C25.3554 21.9878 25.7378 21.6054 25.9775 21.135C26.25 20.6 26.25 19.9 26.25 18.505V8.99625C26.25 7.59875 26.25 6.89875 25.9775 6.365C25.7375 5.89443 25.3546 5.51197 24.8837 5.2725C24.35 5 23.65 5 22.25 5H7.75C6.35 5 5.65 5 5.115 5.2725C4.64462 5.51218 4.26218 5.89462 4.0225 6.365C3.75 6.9 3.75 7.6 3.75 9V23.3387C3.75 24.6712 3.75 25.3375 4.0225 25.6787C4.13968 25.8259 4.28854 25.9447 4.45801 26.0263C4.62747 26.1078 4.81317 26.1501 5.00125 26.15C5.43875 26.15 5.95875 25.7325 7 24.9Z" stroke="#848AA0" stroke-width="4" stroke-linecap="round" stroke-linejoin="round"/>
</svg>
