<svg width="30" height="30" viewBox="0 0 30 30" fill="none" xmlns="http://www.w3.org/2000/svg">
<path d="M28.75 5.125V2.875L26.5 2.625C26.375 2.625 25.625 2.5 24.375 2.5C19.25 2.5 15.5 4 13.375 6.625C11.75 5.625 9.5 5 6.875 5C5.625 5 4.75 5.125 4.75 5.125L2.375 5.5L2.5 7.625C2.625 11.375 4.5 18.5 11 18.5H11.25V22.75C6.5 23.375 2.5 25 2.5 25V27.5H27.5V25C27.5 25 23.5 23.375 18.75 22.75V18.75C26.625 18.625 28.75 9.75 28.75 5.125ZM15 22.5H13.75V15.5C13.75 15.5 13.5 11.25 10 11.25C10 11.25 11.875 12.25 12.375 15.875C11.875 16 11.375 16 11 16C5.25 16 5 7.625 5 7.625C5 7.625 5.75 7.5 6.875 7.5C9.25 7.5 13.125 8 14.25 11.375C14.875 5.75 21.25 5 24.375 5C25.5 5 26.25 5.125 26.25 5.125C26.25 5.125 26.25 16.375 18.375 16.375H17.5C17.5 13.875 20 10.125 20 10.125C16.25 11.375 16.25 16.25 16.25 16.25V22.5H15Z" fill="#848AA0"/>
</svg>
