<svg width="20" height="20" viewBox="0 0 20 20" fill="none" xmlns="http://www.w3.org/2000/svg">
<path fill-rule="evenodd" clip-rule="evenodd" d="M10 1.66663C11.9891 1.66663 13.8968 2.4568 15.3033 3.86332C16.7098 5.26985 17.5 7.1775 17.5 9.16663C17.5 11.7283 16.1033 13.825 14.6317 15.3291C13.8964 16.0725 13.0941 16.7465 12.235 17.3425L11.88 17.5841L11.7133 17.695L11.3992 17.895L11.1192 18.0658L10.7725 18.2675C10.5372 18.4018 10.2709 18.4724 10 18.4724C9.72906 18.4724 9.4628 18.4018 9.2275 18.2675L8.88083 18.0658L8.4475 17.7991L8.2875 17.695L7.94583 17.4675C7.01903 16.8404 6.15575 16.1242 5.36833 15.3291C3.89667 13.8241 2.5 11.7283 2.5 9.16663C2.5 7.1775 3.29018 5.26985 4.6967 3.86332C6.10322 2.4568 8.01088 1.66663 10 1.66663ZM10 3.33329C8.4529 3.33329 6.96917 3.94787 5.87521 5.04184C4.78125 6.1358 4.16667 7.61953 4.16667 9.16663C4.16667 11.1016 5.22667 12.8 6.55917 14.1633C7.13211 14.7433 7.75138 15.2756 8.41083 15.755L8.7925 16.0266C8.91583 16.1127 9.03444 16.1927 9.14833 16.2666L9.47333 16.475L9.75917 16.6491L10 16.79L10.3792 16.5658L10.685 16.3741C10.8478 16.2708 11.0219 16.155 11.2075 16.0266L11.5892 15.755C12.2486 15.2756 12.8679 14.7433 13.4408 14.1633C14.7733 12.8008 15.8333 11.1016 15.8333 9.16663C15.8333 7.61953 15.2188 6.1358 14.1248 5.04184C13.0308 3.94787 11.5471 3.33329 10 3.33329ZM10 5.83329C10.8841 5.83329 11.7319 6.18448 12.357 6.8096C12.9821 7.43472 13.3333 8.28257 13.3333 9.16663C13.3333 10.0507 12.9821 10.8985 12.357 11.5236C11.7319 12.1488 10.8841 12.5 10 12.5C9.11594 12.5 8.2681 12.1488 7.64298 11.5236C7.01786 10.8985 6.66667 10.0507 6.66667 9.16663C6.66667 8.28257 7.01786 7.43472 7.64298 6.8096C8.2681 6.18448 9.11594 5.83329 10 5.83329ZM10 7.49996C9.55797 7.49996 9.13405 7.67555 8.82149 7.98811C8.50893 8.30067 8.33333 8.7246 8.33333 9.16663C8.33333 9.60865 8.50893 10.0326 8.82149 10.3451C9.13405 10.6577 9.55797 10.8333 10 10.8333C10.442 10.8333 10.866 10.6577 11.1785 10.3451C11.4911 10.0326 11.6667 9.60865 11.6667 9.16663C11.6667 8.7246 11.4911 8.30067 11.1785 7.98811C10.866 7.67555 10.442 7.49996 10 7.49996Z" fill="#848AA0"/>
</svg>
