<svg width="28" height="28" viewBox="0 0 28 28" fill="none" xmlns="http://www.w3.org/2000/svg">
<g clip-path="url(#clip0_57_596)">
<path d="M4.30769 0C1.93308 0 0 1.93308 0 4.30769V23.6923C0 26.0669 1.93308 28 4.30769 28H18.3077C19.4525 28 21.042 26.3469 22.8846 24.4666C23.1431 24.2038 23.3908 23.9572 23.6589 23.6923C23.9238 23.4252 24.2038 23.1431 24.4666 22.8846C26.348 21.0409 28 19.4525 28 18.3077V4.30769C28 1.93308 26.0669 0 23.6923 0H4.30769ZM4.30769 2.15385H23.6923C24.2635 2.15385 24.8114 2.38077 25.2153 2.78469C25.6192 3.18862 25.8462 3.73646 25.8462 4.30769V18.3077C25.8462 19.3792 24.7671 19.3846 23.6923 19.3846H20.4615C19.8682 19.3846 19.3846 19.8682 19.3846 20.4615V23.7602C19.3846 24.7154 19.3868 25.648 18.6103 25.8462H4.30769C3.73646 25.8462 3.18862 25.6192 2.78469 25.2153C2.38077 24.8114 2.15385 24.2635 2.15385 23.6923V4.30769C2.15385 3.73646 2.38077 3.18862 2.78469 2.78469C3.18862 2.38077 3.73646 2.15385 4.30769 2.15385ZM7.33708 8.61539C7.05146 8.64209 6.78815 8.78116 6.60507 9.00201C6.42199 9.22285 6.33414 9.50738 6.36085 9.793C6.38755 10.0786 6.52662 10.3419 6.74747 10.525C6.96832 10.7081 7.25284 10.7959 7.53846 10.7692H20.4615C20.7472 10.7692 21.0211 10.6558 21.223 10.4538C21.425 10.2518 21.5385 9.97793 21.5385 9.69231C21.5385 9.40669 21.425 9.13277 21.223 8.93081C21.0211 8.72885 20.7472 8.61539 20.4615 8.61539H7.53846C7.50474 8.6138 7.47096 8.6138 7.43723 8.61539C7.40386 8.61383 7.37044 8.61383 7.33708 8.61539ZM7.33708 14C7.05146 14.0267 6.78815 14.1658 6.60507 14.3866C6.42199 14.6075 6.33414 14.892 6.36085 15.1776C6.38755 15.4632 6.52662 15.7265 6.74747 15.9096C6.96832 16.0927 7.25284 16.1806 7.53846 16.1538H18.3077C18.5933 16.1538 18.8672 16.0404 19.0692 15.8384C19.2712 15.6365 19.3846 15.3625 19.3846 15.0769C19.3846 14.7913 19.2712 14.5174 19.0692 14.3154C18.8672 14.1135 18.5933 14 18.3077 14H7.53846C7.50474 13.9984 7.47096 13.9984 7.43723 14C7.40386 13.9984 7.37044 13.9984 7.33708 14Z" fill="#104547"/>
</g>
<defs>
<clipPath id="clip0_57_596">
<rect width="28" height="28" fill="white"/>
</clipPath>
</defs>
</svg>
