<svg width="32" height="32" viewBox="0 0 32 32" fill="none" xmlns="http://www.w3.org/2000/svg">
<path d="M15.9998 9.33335C17.7679 9.33335 19.4636 10.0357 20.7138 11.286C21.9641 12.5362 22.6665 14.2319 22.6665 16C22.6665 17.7681 21.9641 19.4638 20.7138 20.7141C19.4636 21.9643 17.7679 22.6667 15.9998 22.6667C14.2317 22.6667 12.536 21.9643 11.2857 20.7141C10.0355 19.4638 9.33312 17.7681 9.33312 16C9.33312 14.2319 10.0355 12.5362 11.2857 11.286C12.536 10.0357 14.2317 9.33335 15.9998 9.33335ZM15.9998 12C14.9389 12 13.9215 12.4214 13.1714 13.1716C12.4212 13.9217 11.9998 14.9392 11.9998 16C11.9998 17.0609 12.4212 18.0783 13.1714 18.8284C13.9215 19.5786 14.9389 20 15.9998 20C17.0607 20 18.0781 19.5786 18.8282 18.8284C19.5784 18.0783 19.9998 17.0609 19.9998 16C19.9998 14.9392 19.5784 13.9217 18.8282 13.1716C18.0781 12.4214 17.0607 12 15.9998 12ZM15.9998 2.66669L19.1865 7.22669C18.1998 6.86669 17.1198 6.66669 15.9998 6.66669C14.8798 6.66669 13.7998 6.86669 12.8131 7.22669L15.9998 2.66669ZM4.45312 9.33335L9.99979 8.86669C9.17226 9.56567 8.46899 10.3997 7.91979 11.3334C7.33313 12.32 6.99979 13.3334 6.81313 14.3867L4.45312 9.33335ZM4.47979 22.6667L6.82646 17.64C7.2183 19.7901 8.33897 21.7395 9.99979 23.16L4.47979 22.6667ZM27.5331 9.33335L25.1731 14.3867C24.7958 12.2276 23.6728 10.2694 21.9998 8.85335L27.5331 9.33335ZM27.5198 22.6667L21.9998 23.1467C22.7865 22.4667 23.4931 21.6267 24.0531 20.6667C24.6131 19.6934 24.9731 18.6667 25.1598 17.6134L27.5198 22.6667ZM15.9998 29.3334L12.7865 24.7467C13.7731 25.1067 14.8531 25.3334 15.9998 25.3334C17.0931 25.3334 18.1731 25.1067 19.1598 24.7467L15.9998 29.3334Z" fill="#2B9B3C"/>
</svg>
